<?xml version="1.0" standalone="no"?>
<!DOCTYPE svg PUBLIC "-//W3C//DTD SVG 20010904//EN"
 "http://www.w3.org/TR/2001/REC-SVG-20010904/DTD/svg10.dtd">
<svg version="1.0" xmlns="http://www.w3.org/2000/svg"
 width="453.000000pt" height="452.000000pt" viewBox="0 0 453.000000 452.000000"
 preserveAspectRatio="xMidYMid meet">

<g transform="translate(0.000000,452.000000) scale(0.100000,-0.100000)"
fill="#000000" stroke="none">
<path d="M2061 4510 c-787 -76 -1473 -549 -1821 -1255 -112 -227 -192 -500
-219 -747 -14 -125 -14 -371 0 -496 102 -929 780 -1709 1685 -1938 211 -53
333 -68 559 -68 226 0 348 15 559 68 772 196 1389 794 1610 1563 65 225 81
347 81 623 0 276 -16 398 -81 623 -221 769 -837 1367 -1610 1563 -72 18 -179
40 -239 49 -132 19 -397 27 -524 15z m-315 -1150 c66 -80 153 -175 193 -212
l73 -67 -112 -158 c-161 -228 -182 -269 -188 -363 -8 -138 49 -239 166 -297
50 -24 69 -28 147 -28 139 0 174 24 380 264 78 92 151 174 163 184 20 18 23
16 225 -185 112 -112 303 -311 423 -443 284 -311 424 -455 520 -535 125 -104
184 -164 184 -190 0 -59 -75 -120 -148 -120 -115 0 -318 114 -493 276 -175
163 -444 401 -466 412 -48 26 -83 2 -83 -56 0 -34 18 -54 305 -342 168 -168
305 -313 305 -322 0 -9 -12 -30 -26 -47 -75 -90 -253 -47 -444 108 -47 38
-164 140 -260 227 -226 206 -328 294 -340 294 -15 0 -50 -52 -50 -76 0 -12 4
-34 10 -49 5 -14 136 -155 291 -312 154 -157 286 -297 292 -310 8 -19 7 -29
-9 -50 -37 -50 -71 -67 -127 -67 -93 0 -169 57 -499 375 -191 184 -209 199
-243 199 -32 0 -47 11 -137 98 -217 209 -585 610 -802 871 -61 74 -120 146
-132 159 l-21 26 -67 -57 c-37 -31 -70 -57 -74 -57 -9 1 -122 166 -122 178 0
5 44 49 98 98 94 85 644 555 822 702 l85 71 20 -27 c11 -15 74 -92 141 -172z
m1195 -78 c24 -16 107 -77 184 -137 239 -185 366 -279 465 -346 99 -66 270
-159 295 -159 7 0 25 -4 38 -9 l25 -10 -28 -83 c-28 -87 -109 -268 -202 -452
l-55 -109 -66 82 c-37 46 -67 86 -67 90 0 4 23 29 51 56 45 44 135 151 152
181 3 6 -18 2 -48 -8 -230 -77 -482 17 -589 221 -66 126 -86 268 -46 333 28
47 25 50 -24 22 -36 -20 -196 -84 -210 -84 -5 0 -24 84 -32 142 l-6 46 -134
-66 c-101 -49 -147 -66 -188 -70 l-54 -4 -7 46 c-4 25 -5 57 -3 71 3 14 2 25
-3 25 -14 0 -21 -81 -14 -168 6 -86 6 -88 -30 -160 -43 -85 -116 -162 -198
-208 l-55 -32 24 52 c31 67 30 94 -7 179 -17 39 -42 111 -55 160 l-24 88 34
73 c35 76 63 105 145 146 65 33 247 76 396 94 270 33 280 33 336 -2z m-931
-471 c73 -77 101 -182 65 -250 -48 -94 -185 -130 -246 -65 -21 22 -24 35 -24
92 1 73 10 97 78 200 51 76 73 80 127 23z m-885 -1025 c44 -19 75 -69 75 -122
0 -35 -6 -47 -35 -73 -20 -17 -43 -31 -51 -31 -50 0 -134 88 -134 140 0 45 52
97 98 99 7 1 28 -5 47 -13z m441 -200 c28 -28 34 -41 34 -77 0 -36 -6 -47 -40
-81 -23 -21 -48 -38 -56 -38 -44 0 -100 52 -139 129 -17 34 -17 35 6 52 31 24
96 47 133 48 19 1 38 -9 62 -33z m183 -222 c33 -27 50 -74 43 -112 -3 -13 -19
-39 -37 -58 -42 -44 -94 -47 -130 -8 -31 34 -67 109 -63 131 4 20 100 73 133
73 13 0 37 -12 54 -26z m585 -463 c50 -60 57 -86 25 -96 -55 -18 -114 30 -256
207 -52 65 -114 134 -139 154 -50 42 -61 68 -45 117 l11 34 179 -181 c99 -100
200 -205 225 -235z m-439 175 c13 -8 28 -31 35 -51 10 -30 9 -41 -7 -71 -10
-20 -32 -45 -49 -55 l-31 -19 -43 29 c-43 29 -100 102 -100 128 0 8 24 25 53
39 56 27 101 27 142 0z"/>
</g>
</svg>
